<svg width="21" height="21" viewBox="0 0 21 21" fill="none" xmlns="http://www.w3.org/2000/svg">
<rect width="21" height="21" rx="2" fill="#D9D9D9"/>
<g clip-path="url(#clip0_748_1910)">
<path d="M11.0017 10.2439L14.3772 15.0721H12.9919L10.2374 11.1323V11.132L9.83296 10.5537L6.61523 5.95099H8.00056L10.5973 9.66554L11.0017 10.2439Z" fill="#455E89"/>
<path d="M16.3792 3H4.62078C3.72567 3 3 3.72567 3 4.62078V16.3792C3 17.2743 3.72567 18 4.62078 18H16.3792C17.2743 18 18 17.2743 18 16.3792V4.62078C18 3.72567 17.2743 3 16.3792 3ZM12.5675 15.7203L9.78007 11.6636L6.29022 15.7203H5.38826L9.37958 11.0809L5.38826 5.272H8.43252L11.072 9.11345L14.3767 5.272H15.2786L11.4726 9.69621H11.4724L15.6117 15.7203H12.5675Z" fill="#455E89"/>
</g>
<defs>
<clipPath id="clip0_748_1910">
<rect width="15" height="15" fill="white" transform="translate(3 3)"/>
</clipPath>
</defs>
</svg>
