<svg width="21" height="20" viewBox="0 0 21 20" fill="none" xmlns="http://www.w3.org/2000/svg">
<path d="M9.81853 5.43101L9.81845 5.43089L8.08407 2.90322L8.00958 2.79466H7.87793H5.84668H3.81934H3.34465L3.61319 3.18609L3.98019 3.72105L9.81853 5.43101ZM9.81853 5.43101C10.2948 6.126 10.7318 6.75822 11.0525 7.21692C11.1969 7.42343 11.3174 7.59423 11.407 7.71956C11.5154 7.59853 11.6634 7.43089 11.8422 7.22673C12.2302 6.78361 12.7609 6.1709 13.3406 5.49546C13.9206 4.81959 14.4569 4.1953 14.8541 3.73457C15.0526 3.50424 15.2166 3.31454 15.334 3.17962C15.3927 3.11222 15.44 3.05808 15.4744 3.01924L15.4745 3.01913C15.5007 2.9895 15.5311 2.95517 15.5497 2.93741C15.5802 2.90856 15.6223 2.87371 15.6837 2.84763C15.7406 2.8235 15.7991 2.81317 15.8559 2.80758C15.9629 2.79706 16.127 2.7987 16.3855 2.8025L16.3869 2.80253L16.965 2.81425L17.4955 2.825L17.1495 3.22722L14.6964 6.07916L14.6964 6.07917C14.0941 6.77929 13.5333 7.43187 13.094 7.94317C12.6926 8.41037 12.3925 8.75961 12.2547 8.91938C12.2954 8.99226 12.369 9.1113 12.4976 9.30726C12.837 9.82444 13.5223 10.8224 14.873 12.7871L14.8731 12.7873C15.629 13.889 16.3165 14.8911 16.8151 15.6183C17.0644 15.9819 17.2664 16.2768 17.4062 16.4811L17.5674 16.7171L17.6099 16.7796L17.6216 16.7971L17.6264 16.8043L17.6308 16.8114C17.6316 16.8127 17.6341 16.8169 17.6371 16.8224C17.6388 16.8256 17.6431 16.8343 17.6456 16.8399C17.6505 16.8516 17.6639 16.9018 17.667 16.941C17.667 17.0225 17.6288 17.0799 17.6016 17.1096C17.5758 17.1379 17.5495 17.1536 17.5368 17.1605C17.5109 17.1747 17.4884 17.1809 17.482 17.1826C17.4654 17.1871 17.4516 17.189 17.4478 17.1895L17.4477 17.1895C17.4373 17.1909 17.4277 17.1916 17.423 17.1919C17.4116 17.1926 17.3978 17.1932 17.3836 17.1936C17.3543 17.1946 17.3126 17.1954 17.261 17.1961C17.1571 17.1976 17.0076 17.1988 16.8241 17.1998C16.4568 17.2018 15.9504 17.2027 15.3936 17.2027H13.3701H13.2384L13.1639 17.0941L11.3166 14.3988C11.3165 14.3987 11.3164 14.3986 11.3163 14.3984C10.8068 13.6586 10.3415 12.9873 10.0022 12.5027C9.85055 12.2861 9.72442 12.1072 9.63093 11.9764M9.81853 5.43101L9.63093 11.9764M9.63093 11.9764C9.51187 12.1129 9.34487 12.3055 9.14125 12.5409C8.7196 13.0285 8.14166 13.6993 7.50895 14.4356L7.50889 14.4357L5.2042 17.1157L5.12939 17.2027H5.01465H4.41699H3.81543H3.28171L3.62336 16.7927L3.77961 16.6052L3.77961 16.6052L3.78082 16.6037C3.86775 16.501 5.06406 15.109 6.43851 13.5157C6.43855 13.5157 6.43859 13.5156 6.43863 13.5156L8.81274 10.7553L6.63295 7.58935L6.63255 7.58877C5.75191 6.30193 4.89647 5.05595 4.39698 4.32843C4.18705 4.02265 4.03999 3.80846 3.98037 3.72132L9.63093 11.9764ZM0.94092 1.68266L0.940946 1.68267L0.940013 1.68622L0.939827 1.68692C0.910513 1.79833 0.889714 1.87737 0.879872 2.95173C0.87012 4.0163 0.870117 6.03444 0.870117 9.9987C0.870117 13.963 0.87012 15.9811 0.879872 17.0457C0.889714 18.12 0.910513 18.1991 0.939827 18.3105L0.940013 18.3112L0.940039 18.3112L0.94092 18.3147C1.02675 18.6615 1.17412 18.9153 1.43754 19.1825C1.70476 19.446 1.95845 19.5934 2.30519 19.6792L2.3052 19.6792L2.30875 19.6801L2.30946 19.6803C2.42083 19.7096 2.49987 19.7304 3.57407 19.7402C4.6385 19.75 6.65638 19.75 10.6201 19.75C14.5839 19.75 16.6017 19.75 17.6662 19.7402C18.7404 19.7304 18.8194 19.7096 18.9308 19.6803L18.9315 19.6801L18.9315 19.6801L18.935 19.6792C19.2818 19.5934 19.5354 19.446 19.8027 19.1826C20.0661 18.9153 20.2135 18.6616 20.2993 18.3147L20.2993 18.3147L20.3002 18.3112L20.3004 18.3105C20.3297 18.1991 20.3505 18.12 20.3604 17.0457C20.3701 15.9811 20.3701 13.963 20.3701 9.9987C20.3701 6.03444 20.3701 4.0163 20.3604 2.95173C20.3505 1.87737 20.3297 1.79833 20.3004 1.68692L20.3002 1.68622L20.2996 1.68378C20.2099 1.32839 20.0664 1.07912 19.7849 0.800982C19.5056 0.528778 19.2982 0.408131 18.935 0.318193L18.935 0.318218L18.9315 0.317291L18.9313 0.317245C18.8198 0.287882 18.7404 0.267002 17.6614 0.257635C16.594 0.248369 14.5723 0.249342 10.6046 0.251295H10.6045C6.678 0.251295 4.65511 0.252275 3.57893 0.26203C2.49496 0.271854 2.39474 0.29159 2.29257 0.317444C1.9586 0.407234 1.70018 0.556009 1.43751 0.814888C1.17412 1.08214 1.02675 1.33586 0.94092 1.68266ZM12.2165 8.84327C12.2162 8.84219 12.216 8.84163 12.216 8.84162L12.2165 8.84327Z" fill="white" stroke="url(#paint0_linear_728_593)" stroke-width="0.5"/>
<path d="M5.51074 4.02932C5.68262 4.29107 13.8779 16.0035 13.917 16.0465C13.9521 16.0817 14.1787 16.0934 14.8701 16.0856L15.7725 16.0739L11.542 10.0184L7.30762 3.9629L6.38184 3.95118L5.45215 3.94337L5.51074 4.02932Z" fill="url(#paint1_linear_728_593)"/>
<defs>
<linearGradient id="paint0_linear_728_593" x1="18.2568" y1="19.192" x2="2.36082" y2="0.00203801" gradientUnits="userSpaceOnUse">
<stop stop-color="#F7B801"/>
<stop offset="1" stop-color="#F18701"/>
</linearGradient>
<linearGradient id="paint1_linear_728_593" x1="18.7842" y1="19.8074" x2="1.71634" y2="1.21835" gradientUnits="userSpaceOnUse">
<stop stop-color="#F7B801"/>
<stop offset="1" stop-color="#F18701"/>
</linearGradient>
</defs>
</svg>
