<svg width="20" height="20" viewBox="0 0 21 20" fill="none" xmlns="http://www.w3.org/2000/svg">
<path d="M2.22949 0.0755242C1.85059 0.1771 1.55371 0.348998 1.26074 0.638098C0.967773 0.935012 0.795898 1.22802 0.698242 1.6226C0.620117 1.91952 0.620117 2.07188 0.620117 9.9987C0.620117 17.9255 0.620117 18.0779 0.698242 18.3748C0.795898 18.7694 0.967773 19.0624 1.26074 19.3593C1.55762 19.6523 1.85059 19.8242 2.24512 19.9219C2.54199 20 2.69434 20 10.6201 20C18.5459 20 18.6982 20 18.9951 19.9219C19.3896 19.8242 19.6826 19.6523 19.9795 19.3593C20.2725 19.0624 20.4443 18.7694 20.542 18.3748C20.6201 18.0779 20.6201 17.9255 20.6201 9.9987C20.6201 2.07188 20.6201 1.91952 20.542 1.6226C20.4404 1.22021 20.2725 0.931105 19.96 0.622471C19.6514 0.321651 19.4053 0.1771 18.9951 0.0755242C18.6982 -0.00261104 18.5381 -0.0026108 10.6045 0.00129596C2.75293 0.00129596 2.50684 0.00520248 2.22949 0.0755242ZM9.61231 5.57234C10.5654 6.96314 11.3623 8.10392 11.3857 8.10782C11.4053 8.11173 12.3701 7.01002 13.5303 5.65828C14.6904 4.30655 15.6748 3.16187 15.7217 3.11889C15.7959 3.04857 15.8506 3.04466 16.3818 3.05248L16.96 3.0642L14.5068 5.91613C13.1592 7.48274 12.0264 8.80323 11.9873 8.8462C11.917 8.92434 11.9678 9.00247 14.667 12.9288C16.1787 15.1322 17.417 16.9371 17.417 16.941C17.417 16.9488 16.5068 16.9527 15.3936 16.9527H13.3701L11.5225 14.2571C10.5029 12.7764 9.65918 11.5692 9.64746 11.5809C9.63184 11.5887 8.58496 12.7998 7.31934 14.2727L5.01465 16.9527H4.41699H3.81543L3.97168 16.7652C4.05762 16.6636 5.25293 15.2728 6.62793 13.6789L9.12793 10.7722L6.83887 7.44758C5.58496 5.61531 4.38965 3.8768 4.18652 3.57989L3.81934 3.04466H5.84668H7.87793L9.61231 5.57234Z" fill="url(#paint0_linear_728_593)"/>
<path d="M5.51074 4.02932C5.68262 4.29107 13.8779 16.0035 13.917 16.0465C13.9521 16.0817 14.1787 16.0934 14.8701 16.0856L15.7725 16.0739L11.542 10.0184L7.30762 3.9629L6.38184 3.95118L5.45215 3.94337L5.51074 4.02932Z" fill="url(#paint1_linear_728_593)"/>
<defs>
<linearGradient id="paint0_linear_728_593" x1="26.4566" y1="26.1254" x2="-0.907001" y2="-8.94491" gradientUnits="userSpaceOnUse">
<stop stop-color="#F7762E"/>
<stop offset="1" stop-color="#F7762E"/>
</linearGradient>
<linearGradient id="paint1_linear_728_593" x1="18.7842" y1="19.8074" x2="1.71634" y2="1.21835" gradientUnits="userSpaceOnUse">
<stop stop-color="#F7762E"/>
<stop offset="1" stop-color="#F7762E"/>
</linearGradient>
</defs>
</svg>
