<svg width="21" height="21" viewBox="0 0 21 21" fill="none" xmlns="http://www.w3.org/2000/svg">
<path d="M13.3006 17.852L13.3751 17.9604H13.5066H17.5656H18.0408L17.7717 17.5688L12.3617 9.69558L17.311 3.94238L17.6663 3.52934H17.1215H15.9189H15.8042L15.7293 3.6163L11.5349 8.49211L8.19941 3.63776L8.12491 3.52934H7.99336H3.93435H3.45925L3.7283 3.92092L8.94104 11.5075L3.74484 17.5473L3.38949 17.9604H3.93435H5.13696H5.25167L5.32648 17.8734L9.7679 12.7106L13.3006 17.852ZM2.91104 1H18.589C19.6444 1 20.5 1.85563 20.5 2.91104V18.589C20.5 19.6444 19.6444 20.5 18.589 20.5H2.91104C1.85563 20.5 1 19.6444 1 18.589V2.91104C1 1.85563 1.85563 1 2.91104 1Z" fill="white" stroke="#723C70"/>
</svg>
