<svg width="24" height="24" viewBox="0 0 24 24" fill="none" xmlns="http://www.w3.org/2000/svg">
<rect opacity="0.25" width="24" height="24" rx="3" fill="#12131A"/>
<path d="M13.5986 5.09837L10.3465 8.35044C10.3402 8.35669 10.3363 8.36428 10.3301 8.37059C11.1312 8.25391 11.9543 8.33391 12.7172 8.63141L14.9244 6.42422C15.6556 5.693 16.8448 5.693 17.5761 6.42422C18.3073 7.15537 18.3073 8.34466 17.5761 9.07581C17.4514 9.20056 14.136 12.516 14.324 12.3279C13.587 13.0649 12.3779 13.0334 11.6723 12.3279C11.3069 11.9625 10.712 11.9625 10.3465 12.3279L9.77734 12.8971C9.93522 13.1653 10.1162 13.4234 10.3465 13.6538C11.7353 15.0425 14.1257 15.1534 15.6297 13.6702C15.636 13.6639 15.6435 13.66 15.6498 13.6538L18.9019 10.4017C20.3663 8.93719 20.3663 6.56287 18.9019 5.09837C17.4374 3.63388 15.0631 3.63388 13.5986 5.09837Z" fill="#12131A"/>
<path d="M11.2901 15.3608L9.07582 17.5751C8.34466 18.3063 7.15538 18.3063 6.42423 17.5751C5.69301 16.8439 5.69301 15.6546 6.42423 14.9234C6.54891 14.7987 9.87141 11.4762 9.68338 11.6643C10.4204 10.9273 11.6295 10.9587 12.335 11.6643C12.7004 12.0297 13.2954 12.0297 13.6609 11.6643L14.23 11.0951C14.0722 10.8268 13.8912 10.5687 13.6609 10.3384C12.2748 8.95229 9.88607 8.83435 8.3777 10.322C8.37141 10.3282 8.36385 10.3322 8.35754 10.3384L5.09835 13.5976C3.63391 15.0621 3.63385 17.4364 5.09835 18.9009C6.56285 20.3654 8.93723 20.3654 10.4017 18.9009L13.6608 15.6417C13.6671 15.6355 13.671 15.6279 13.6773 15.6216C12.8761 15.7383 12.0531 15.6583 11.2901 15.3608Z" fill="#12131A"/>
</svg>
