<?xml version="1.0" encoding="UTF-8"?>
<!DOCTYPE svg PUBLIC "-//W3C//DTD SVG 1.1//EN" "http://www.w3.org/Graphics/SVG/1.1/DTD/svg11.dtd">
<svg xmlns="http://www.w3.org/2000/svg" version="1.1" width="512px" height="512px" style="shape-rendering:geometricPrecision; text-rendering:geometricPrecision; image-rendering:optimizeQuality; fill-rule:evenodd; clip-rule:evenodd" xmlns:xlink="http://www.w3.org/1999/xlink">
<g><path style="opacity:0.963" fill="#000000" d="M 123.5,31.5 C 198.167,31.3333 272.834,31.5 347.5,32C 360.662,36.1589 368.495,44.9922 371,58.5C 371.667,82.5 371.667,106.5 371,130.5C 369.601,134.238 366.934,135.904 363,135.5C 359.066,135.904 356.399,134.238 355,130.5C 354.667,107.167 354.333,83.8333 354,60.5C 352.602,55.2015 349.435,51.3682 344.5,49C 328.868,47.2471 313.202,47.0804 297.5,48.5C 295.235,54.796 293.068,61.1294 291,67.5C 289.833,68.6667 288.667,69.8333 287.5,71C 252.833,71.6667 218.167,71.6667 183.5,71C 182.069,70.5348 180.903,69.7014 180,68.5C 177.524,61.5726 175.357,54.5726 173.5,47.5C 159.496,47.3334 145.496,47.5001 131.5,48C 124.434,48.4469 119.601,51.9469 117,58.5C 116.333,189.833 116.333,321.167 117,452.5C 119.601,459.053 124.434,462.553 131.5,463C 202.536,463.984 273.536,463.65 344.5,462C 349.435,459.632 352.602,455.799 354,450.5C 354.333,427.167 354.667,403.833 355,380.5C 356.399,376.762 359.066,375.096 363,375.5C 366.934,375.096 369.601,376.762 371,380.5C 371.667,404.5 371.667,428.5 371,452.5C 368.388,466.447 360.221,475.28 346.5,479C 272.167,479.667 197.833,479.667 123.5,479C 111.227,475.061 103.394,466.894 100,454.5C 99.3333,321.833 99.3333,189.167 100,56.5C 103.581,44.0884 111.414,35.755 123.5,31.5 Z M 191.5,47.5 C 220.841,47.1668 250.174,47.5002 279.5,48.5C 278.423,50.7294 277.756,53.0628 277.5,55.5C 249.492,55.8331 221.492,55.4998 193.5,54.5C 192.423,52.2706 191.756,49.9372 191.5,47.5 Z"/></g>
<g><path style="opacity:0.947" fill="#000000" d="M 220.5,151.5 C 241.836,151.333 263.169,151.5 284.5,152C 294.756,155.587 300.589,162.754 302,173.5C 302.925,193.538 302.592,213.538 301,233.5C 297.851,242.984 291.351,248.484 281.5,250C 262.167,250.667 242.833,250.667 223.5,250C 212,247.833 205.167,241 203,229.5C 202.333,210.5 202.333,191.5 203,172.5C 205.097,162.248 210.93,155.248 220.5,151.5 Z M 227.5,167.5 C 244.17,167.333 260.837,167.5 277.5,168C 280.034,168.516 282.2,169.683 284,171.5C 285.627,189.768 285.96,208.101 285,226.5C 284.654,228.848 283.487,230.681 281.5,232C 262.924,233.64 244.257,233.974 225.5,233C 223.714,232.215 222.214,231.049 221,229.5C 219.36,211.257 219.027,192.924 220,174.5C 221.124,170.538 223.624,168.205 227.5,167.5 Z"/></g>
<g><path style="opacity:0.947" fill="#000000" d="M 329.5,151.5 C 351.169,151.333 372.836,151.5 394.5,152C 403.096,154.929 408.596,160.763 411,169.5C 411.667,190.5 411.667,211.5 411,232.5C 407.656,241.843 401.156,247.677 391.5,250C 372.167,250.667 352.833,250.667 333.5,250C 322.452,247.952 315.618,241.452 313,230.5C 312.333,210.5 312.333,190.5 313,170.5C 315.178,161.163 320.678,154.83 329.5,151.5 Z M 337.5,167.5 C 354.17,167.333 370.837,167.5 387.5,168C 389.519,168.45 391.352,169.283 393,170.5C 394.641,189.743 394.975,209.077 394,228.5C 393.535,229.931 392.701,231.097 391.5,232C 372.899,233.628 354.232,233.961 335.5,233C 333.061,232.226 331.227,230.726 330,228.5C 329.333,210.167 329.333,191.833 330,173.5C 331.542,170.108 334.042,168.108 337.5,167.5 Z"/></g>
<g><path style="opacity:0.947" fill="#000000" d="M 223.5,260.5 C 242.836,260.333 262.17,260.5 281.5,261C 293.891,263.393 300.725,270.893 302,283.5C 302.667,301.5 302.667,319.5 302,337.5C 300.589,348.246 294.756,355.413 284.5,359C 263.167,359.667 241.833,359.667 220.5,359C 210.735,355.566 204.902,348.732 203,338.5C 202.333,319.5 202.333,300.5 203,281.5C 205.347,269.987 212.181,262.987 223.5,260.5 Z M 225.5,277.5 C 243.503,277.333 261.503,277.5 279.5,278C 281.286,278.785 282.786,279.951 284,281.5C 285.627,299.768 285.96,318.101 285,336.5C 284.067,340.395 281.567,342.562 277.5,343C 260.833,343.667 244.167,343.667 227.5,343C 224.724,342.934 222.558,341.768 221,339.5C 219.372,320.899 219.039,302.232 220,283.5C 221.36,280.977 223.193,278.977 225.5,277.5 Z"/></g>
<g><path style="opacity:0.947" fill="#000000" d="M 333.5,260.5 C 352.836,260.333 372.17,260.5 391.5,261C 401.156,263.323 407.656,269.157 411,278.5C 411.667,299.5 411.667,320.5 411,341.5C 408.596,350.237 403.096,356.071 394.5,359C 372.833,359.667 351.167,359.667 329.5,359C 320.458,355.96 314.958,349.793 313,340.5C 312.333,320.5 312.333,300.5 313,280.5C 315.796,269.536 322.629,262.869 333.5,260.5 Z M 335.5,277.5 C 353.17,277.333 370.836,277.5 388.5,278C 390.329,278.273 391.829,279.107 393,280.5C 394.143,290.405 394.643,300.405 394.5,310.5C 394.333,319.833 394.167,329.167 394,338.5C 392.661,341.094 390.494,342.594 387.5,343C 370.833,343.667 354.167,343.667 337.5,343C 334.724,342.934 332.558,341.768 331,339.5C 329.359,320.59 329.026,301.59 330,282.5C 331.406,280.256 333.239,278.59 335.5,277.5 Z"/></g>
<g><path style="opacity:0.979" fill="#000000" d="M 199.5,431.5 C 223.502,431.333 247.502,431.5 271.5,432C 276.833,437 276.833,442 271.5,447C 247.5,447.667 223.5,447.667 199.5,447C 192.914,441.84 192.914,436.673 199.5,431.5 Z"/></g>
</svg>
