<?xml version="1.0" encoding="UTF-8"?>
<svg version="1.1" xmlns="http://www.w3.org/2000/svg" width="512" height="512">
<path d="M0 0 C0.90476837 -0.00226556 1.80953675 -0.00453111 2.74172235 -0.00686532 C5.76225591 -0.01317668 8.78274428 -0.0123778 11.80328369 -0.0115509 C13.9736334 -0.0145442 16.14398258 -0.01794712 18.31433105 -0.02172852 C24.20289992 -0.03055578 30.09145426 -0.03290611 35.98002911 -0.0335443 C39.66151518 -0.03425557 43.34299757 -0.03639136 47.02448273 -0.03904152 C59.87523126 -0.04829099 72.72596944 -0.05237694 85.57672119 -0.05158997 C97.54350964 -0.0509894 109.51024572 -0.0615381 121.47702384 -0.07733363 C131.76090575 -0.09042267 142.04477294 -0.09577328 152.32866311 -0.09513456 C158.46635541 -0.09487995 164.60400761 -0.09771028 170.74169159 -0.10831261 C176.51682252 -0.11801642 182.29187523 -0.11805708 188.06700897 -0.11079597 C190.18129593 -0.10975295 192.29558781 -0.11209621 194.40986633 -0.11815643 C220.6129762 -0.18837211 220.6129762 -0.18837211 231.86676025 5.69621277 C232.54794922 6.047724 233.22913818 6.39923523 233.93096924 6.76139832 C247.48587779 14.04067808 256.16695387 25.52370448 260.80426025 40.13371277 C262.06902139 44.99195539 262.00142721 49.83065002 262.0425415 54.81730652 C262.05061325 55.75043167 262.058685 56.68355682 262.06700134 57.6449585 C262.08079941 59.61425439 262.09154059 61.58357377 262.09942627 63.55290222 C262.11097239 65.56339033 262.13146545 67.57384716 262.16094971 69.58415222 C262.20362565 72.49541465 262.21979243 75.40577015 262.2300415 78.31730652 C262.24754959 79.21122604 262.26505768 80.10514557 262.28309631 81.02615356 C262.26388132 86.57148196 261.52259549 89.74677965 257.80426025 94.13371277 C253.52217959 97.73455333 249.41227197 99.38623112 243.80426025 99.13371277 C237.57903847 97.9369973 234.38982552 95.24042694 230.80426025 90.13371277 C229.31015739 87.14550704 229.61878287 84.36669117 229.5581665 81.03605652 C229.5251899 79.57967116 229.49197899 78.1232911 229.45855713 76.66691589 C229.41144891 74.37862806 229.36709183 72.09035544 229.32745361 69.80192566 C229.4500276 54.01099412 229.4500276 54.01099412 222.80426025 40.13371277 C217.36291873 34.97875764 212.02121789 33.88802313 204.6668396 33.85523987 C203.97325851 33.84945419 203.27967743 33.84366852 202.56507874 33.83770752 C200.24648383 33.82075063 197.92808794 33.81784559 195.60943604 33.81486511 C193.91662045 33.80545054 192.2238095 33.79517086 190.53100395 33.78409767 C186.00433647 33.75686978 181.47770141 33.74145764 176.95097351 33.72851562 C172.7007722 33.71456747 168.45065882 33.68993316 164.20050049 33.66618347 C151.77680367 33.60297226 139.35302449 33.55688548 126.92926025 33.50871277 C99.16801025 33.38496277 71.40676025 33.26121277 42.80426025 33.13371277 C42.80426025 127.84371277 42.80426025 222.55371277 42.80426025 320.13371277 C70.35926025 320.03058777 97.91426025 319.92746277 126.30426025 319.82121277 C135.00220947 319.79631775 143.70015869 319.77142273 152.66168213 319.74577332 C160.46399925 319.7092055 160.46399925 319.7092055 168.26629639 319.66870117 C171.7392919 319.65077718 175.2122034 319.64116116 178.6852417 319.63659668 C183.11936485 319.63049576 187.55320975 319.61012562 191.98722935 319.57955134 C193.61198769 319.57075414 195.23678248 319.5669124 196.86156368 319.56867349 C206.09151203 319.5756457 213.49884176 319.38931048 221.55426025 314.44621277 C227.95865722 307.86391589 228.89618689 300.08600828 228.9800415 291.19621277 C229.00388916 289.88910339 229.02773682 288.58199402 229.05230713 287.23527527 C229.08742151 285.18145205 229.116796 283.12822975 229.13018799 281.07414246 C229.14574006 279.07294951 229.18761815 277.07201644 229.2300415 275.07121277 C229.24462402 273.88398621 229.25920654 272.69675964 229.27423096 271.47355652 C230.08679486 266.35339338 232.61005693 263.26820593 236.30426025 259.75871277 C241.46926034 257.36067701 246.20448905 257.37989741 251.80426025 258.13371277 C256.77189128 260.44011289 259.19336946 263.37311611 261.80426025 268.13371277 C262.36663484 271.18533582 262.36578447 274.16985687 262.33551025 277.26652527 C262.33933716 278.13961334 262.34316406 279.01270142 262.34710693 279.9122467 C262.34982087 281.75626277 262.34249602 283.60031767 262.32574463 285.44425964 C262.30448197 288.22966781 262.32548225 291.01245087 262.35113525 293.79777527 C262.37975326 311.84734479 257.82291017 325.44944438 245.28082275 338.80949402 C233.91114118 349.47977877 219.90661501 353.28977821 204.66630554 353.27415466 C203.75563562 353.27712579 202.8449657 353.28009691 201.90669972 353.28315806 C198.86009269 353.29181835 195.81352509 353.29335106 192.76690674 353.29484558 C190.58024512 353.29947571 188.39358431 353.30450063 186.20692444 353.30989075 C180.26858002 353.32299954 174.33024691 353.32945696 168.39189029 353.33390141 C164.67873467 353.3368351 160.96558212 353.34094051 157.25242805 353.34540558 C144.95812396 353.35986298 132.66382832 353.36919375 120.36951648 353.37327209 C119.37609771 353.37360624 119.37609771 353.37360624 118.36260986 353.37394714 C117.6995152 353.37416857 117.03642053 353.37439 116.35323209 353.37461814 C106.28829616 353.37831666 96.2234203 353.39312367 86.1585083 353.41496277 C74.45458947 353.44027362 62.75071785 353.45514187 51.04677063 353.45664859 C44.85755583 353.45769458 38.66843708 353.46355854 32.47924614 353.4814682 C26.65238764 353.49800138 20.82569683 353.50007891 14.99882317 353.49132919 C12.86763559 353.49056158 10.73643881 353.49486492 8.6052742 353.50478745 C-11.59215043 353.59326207 -28.4390978 351.52635351 -43.71917725 336.84074402 C-51.57139984 328.25779408 -58.30321195 316.45568059 -58.32996082 304.53643799 C-58.33441867 303.61277435 -58.33887651 302.68911072 -58.34346944 301.73745728 C-58.34328508 300.72619278 -58.34310072 299.71492828 -58.34291077 298.67301941 C-58.34658745 297.59592712 -58.35026414 296.51883484 -58.35405225 295.40910339 C-58.36509582 291.78735382 -58.36893411 288.16563292 -58.3727417 284.54386902 C-58.37900591 281.95194406 -58.38565267 279.36002 -58.39265442 276.76809692 C-58.41240551 268.98024655 -58.42248422 261.19239491 -58.43138221 253.40452576 C-58.43576813 249.7340944 -58.44113423 246.06366448 -58.44637108 242.39323425 C-58.46338351 230.18609415 -58.47787599 217.97895494 -58.48511982 205.77180481 C-58.48702962 202.60484313 -58.48894996 199.43788145 -58.49090576 196.2709198 C-58.4913895 195.48381662 -58.49187324 194.69671343 -58.49237164 193.88575864 C-58.50066563 181.14531777 -58.52599179 168.40497098 -58.55848644 155.66457117 C-58.59160018 142.57432106 -58.60957255 129.48411868 -58.61276406 116.39382648 C-58.61492538 109.0482023 -58.62361826 101.70271523 -58.64922523 94.35713196 C-58.6732737 87.44275371 -58.67673085 80.52862542 -58.66646385 73.61421394 C-58.66596885 71.0810775 -58.67227859 68.54792885 -58.6860199 66.01482964 C-58.70377732 62.54635194 -58.6966127 59.07875455 -58.68348694 55.61027527 C-58.69445618 54.61685655 -58.70542543 53.62343782 -58.71672708 52.5999155 C-58.58584604 38.19343121 -52.14158138 25.64338078 -42.44573975 15.23136902 C-30.61292392 4.19973343 -15.8132797 -0.02929603 0 0 Z " fill="#D8EC91" transform="translate(74.19573974609375,85.86628723144531)"/>
<path d="M0 0 C3.70308405 2.89992817 7.15226942 6.08164139 10.60351562 9.2734375 C13.35904628 11.79165695 16.2119654 14.18903169 19.07128906 16.58789062 C19.87832275 17.27044922 19.87832275 17.27044922 20.70166016 17.96679688 C24.04621044 20.79312004 27.4233269 23.57580442 30.82128906 26.33789062 C35.68381762 30.29444588 40.44148367 34.362259 45.18774414 38.45654297 C48.74765516 41.52043679 52.35048687 44.51621782 56.00878906 47.46289062 C77.33397332 64.84480856 77.33397332 64.84480856 80.38378906 75.90039062 C81.39490031 87.14018544 80.67754758 96.9267173 73.32128906 105.96289062 C68.7811579 110.78375485 63.56864919 114.80336219 58.38378906 118.90039062 C56.67242644 120.29250823 54.96411419 121.68838368 53.25878906 123.08789062 C52.35644531 123.82652344 51.45410156 124.56515625 50.52441406 125.32617188 C49.47744201 126.18412637 48.43057643 127.0422108 47.38378906 127.90039062 C46.74634766 128.42294434 46.10890625 128.94549805 45.45214844 129.48388672 C38.07657108 135.53400301 30.71202121 141.59350905 23.44628906 147.77539062 C18.17477449 152.25803702 12.81690612 156.61536985 7.38378906 160.90039062 C6.578125 161.55265625 5.77246094 162.20492187 4.94238281 162.87695312 C4.15992188 163.5034375 3.37746094 164.12992188 2.57128906 164.77539062 C1.88421875 165.3296875 1.19714844 165.88398438 0.48925781 166.45507812 C-4.10534145 169.60907019 -8.07640451 170.46376077 -13.61621094 169.90039062 C-18.88916179 168.07361926 -22.55544699 165.67518238 -25.61621094 160.90039062 C-26.56117362 158.06550258 -26.84241084 156.04480445 -26.92871094 153.08789062 C-26.98478516 151.84072266 -26.98478516 151.84072266 -27.04199219 150.56835938 C-25.33334459 139.86187949 -11.37214229 131.60710441 -3.49902344 125.24804688 C-0.33604632 122.67223489 2.77685188 120.04320961 5.88378906 117.40039062 C21.40633116 104.21869589 21.40633116 104.21869589 26.38378906 100.90039062 C24.61681293 100.89957347 24.61681293 100.89957347 22.81414032 100.89873981 C-5.16051452 100.88469004 -33.13504136 100.84491323 -61.10961047 100.773535 C-64.55419298 100.76476845 -67.99877599 100.75621861 -71.44335938 100.74780273 C-72.12910229 100.74612367 -72.8148452 100.74444461 -73.52136821 100.74271467 C-84.61899725 100.71605836 -95.71657464 100.70695057 -106.81423241 100.7043492 C-118.20487417 100.70128773 -129.59533738 100.67894729 -140.98592329 100.63986605 C-147.38245696 100.6185291 -153.77873864 100.60593923 -160.17530823 100.61423683 C-166.19674612 100.62177224 -172.2176732 100.60597389 -178.23901749 100.57233047 C-180.44807047 100.56409122 -182.6571742 100.56435425 -184.86622238 100.57379341 C-187.88557787 100.58541699 -190.90325976 100.56629333 -193.92248535 100.53962708 C-195.22990842 100.55563696 -195.22990842 100.55563696 -196.56374407 100.57197028 C-202.71481263 100.47080637 -206.84027773 98.80526867 -211.61621094 94.90039062 C-215.24715204 90.40665164 -215.11855187 86.36495254 -214.96777344 80.77929688 C-214.33328604 75.58355004 -211.82791364 73.02121563 -208.11621094 69.58789062 C-204.64233701 67.24302572 -201.71537926 66.77770529 -197.5788765 66.76172543 C-196.78018151 66.75625098 -195.98148652 66.75077654 -195.15858865 66.7451362 C-194.28699475 66.74415809 -193.41540085 66.74317999 -192.51739502 66.74217224 C-191.58701093 66.73723426 -190.65662685 66.73229629 -189.69804931 66.72720867 C-186.57344094 66.71182287 -183.44885313 66.70347009 -180.32421875 66.69506836 C-178.08720213 66.68549069 -175.85018733 66.67548068 -173.61317444 66.66506958 C-167.53303829 66.63800243 -161.45289436 66.61700264 -155.37273121 66.59706759 C-149.02123912 66.57521923 -142.66977106 66.54782492 -136.31829834 66.52101135 C-125.6554057 66.47674688 -114.99250545 66.43591425 -104.32958984 66.39770508 C-93.34683266 66.35834041 -82.36408646 66.31691186 -71.38134766 66.27270508 C-70.70435055 66.26998081 -70.02735345 66.26725653 -69.32984129 66.26444971 C-65.93353951 66.25077007 -62.5372379 66.23704983 -59.14093637 66.2233094 C-30.96605078 66.10937469 -2.79114121 66.00263172 25.38378906 65.90039062 C23.33091663 64.15889728 21.27744494 62.41811891 19.22363281 60.67773438 C18.64915405 60.19026733 18.07467529 59.70280029 17.48278809 59.20056152 C14.00020933 56.25053995 10.49140961 53.33784541 6.94628906 50.46289062 C2.08962382 46.51110624 -2.66773296 42.4538823 -7.40039062 38.35522461 C-10.17391228 35.96078157 -12.96019134 33.60330172 -15.84667969 31.34570312 C-16.8225 30.58 -17.79832031 29.81429687 -18.80371094 29.02539062 C-19.66351563 28.36796875 -20.52332031 27.71054688 -21.40917969 27.03320312 C-24.61421957 23.93594335 -26.29529503 20.77095455 -27.04980469 16.37304688 C-27.05961709 10.31879321 -26.31235204 6.76373418 -22.61621094 1.90039062 C-15.88696546 -3.54027593 -7.51705509 -5.11432268 0 0 Z " fill="#D8EC91" transform="translate(406.6162109375,179.099609375)"/>
</svg>
